<svg width="660" height="660" viewBox="0 0 660 660" fill="none" xmlns="http://www.w3.org/2000/svg">
<path d="M61.392 218.321C56.5768 196.622 57.3162 174.059 63.5415 152.723C69.7668 131.386 81.2765 111.967 97.0035 96.2672C112.73 80.567 132.165 69.0934 153.506 62.9104C174.848 56.7273 197.404 56.0349 219.083 60.8974C231.016 42.2277 247.455 26.8635 266.884 16.2209C286.313 5.57838 308.108 0 330.259 0C352.41 0 374.205 5.57838 393.634 16.2209C413.064 26.8635 429.502 42.2277 441.435 60.8974C463.148 56.0137 485.743 56.703 507.118 62.9011C528.493 69.0992 547.954 80.6047 563.69 96.3475C579.427 112.09 590.928 131.559 597.124 152.942C603.319 174.326 604.008 196.93 599.127 218.651C617.789 230.588 633.147 247.034 643.785 266.471C654.424 285.907 660 307.711 660 329.871C660 352.03 654.424 373.834 643.785 393.271C633.147 412.708 617.789 429.153 599.127 441.09C603.987 462.779 603.295 485.344 597.114 506.693C590.934 528.043 579.465 547.485 563.771 563.218C548.077 578.952 528.666 590.466 507.338 596.694C486.01 602.921 463.455 603.661 441.765 598.844C429.848 617.585 413.396 633.015 393.934 643.705C374.471 654.395 352.627 660 330.424 660C308.221 660 286.377 654.395 266.915 643.705C247.452 633.015 231.001 617.585 219.083 598.844C197.404 603.706 174.848 603.014 153.506 596.831C132.165 590.648 112.73 579.174 97.0035 563.474C81.2765 547.774 69.7668 528.355 63.5415 507.019C57.3162 485.682 56.5768 463.119 61.392 441.42C42.5863 429.514 27.0962 413.044 16.3624 393.54C5.62867 374.037 0 352.135 0 329.871C0 307.607 5.62867 285.704 16.3624 266.201C27.0962 246.698 42.5863 230.227 61.392 218.321Z" fill="#48BEFF"/>
<path d="M351.764 247.106C396.546 242.098 436.909 274.34 441.92 319.122C446.931 363.903 414.692 404.267 369.911 409.284C325.126 414.297 284.756 382.054 279.744 337.269C274.733 292.483 306.978 252.115 351.764 247.106Z" fill="white"/>
<path d="M536.709 247.106C581.491 242.098 621.854 274.34 626.866 319.122C631.876 363.903 599.637 404.267 554.856 409.284C510.071 414.297 469.701 382.054 464.689 337.269C459.678 292.483 491.923 252.115 536.709 247.106Z" fill="white"/>
<path d="M377.14 275.736C405.092 273.732 429.38 294.757 431.404 322.708C433.427 350.659 412.419 374.962 384.47 377.005C356.493 379.049 332.16 358.016 330.135 330.038C328.11 302.059 349.16 277.741 377.14 275.736Z" fill="#1E1B18"/>
<path d="M562.085 275.736C590.037 273.732 614.326 294.757 616.349 322.708C618.372 350.659 597.364 374.962 569.415 377.005C541.438 379.049 517.105 358.016 515.08 330.038C513.055 302.059 534.105 277.741 562.085 275.736Z" fill="#1E1B18"/>
</svg>
